<?xml version="1.0" encoding="UTF-8" standalone="no"?>
<svg
   height="362.20mm"
   viewBox="0.0 0.0 263.90 362.20"
   width="263.90mm"
   version="1.1"
   id="svg2031"
   sodipodi:docname="ElectronicsBox.svg"
   inkscape:version="1.2 (dc2aeda, 2022-05-15)"
   xmlns:inkscape="http://www.inkscape.org/namespaces/inkscape"
   xmlns:sodipodi="http://sodipodi.sourceforge.net/DTD/sodipodi-0.dtd"
   xmlns="http://www.w3.org/2000/svg"
   xmlns:svg="http://www.w3.org/2000/svg"
   xmlns:rdf="http://www.w3.org/1999/02/22-rdf-syntax-ns#"
   xmlns:cc="http://creativecommons.org/ns#"
   xmlns:dc="http://purl.org/dc/elements/1.1/">
  <defs
     id="defs2035" />
  <sodipodi:namedview
     id="namedview2033"
     pagecolor="#ffffff"
     bordercolor="#000000"
     borderopacity="0.25"
     inkscape:showpageshadow="2"
     inkscape:pageopacity="0.0"
     inkscape:pagecheckerboard="0"
     inkscape:deskcolor="#d1d1d1"
     inkscape:document-units="mm"
     showgrid="true"
     inkscape:zoom="1.8913067"
     inkscape:cx="322.7927"
     inkscape:cy="917.09081"
     inkscape:window-width="1848"
     inkscape:window-height="1016"
     inkscape:window-x="72"
     inkscape:window-y="27"
     inkscape:window-maximized="1"
     inkscape:current-layer="svg2031">
    <inkscape:grid
       type="xygrid"
       id="grid30719" />
  </sodipodi:namedview>
  <!--
ElectronicsBox - Closed box with screw on top and mounting holes

Created with Boxes.py (https://festi.info/boxes.py)
Creation date: 2022-06-10 14:39:34
Command line (remove spaces between dashes): boxes ElectronicsBox - -FingerJoint_angle=90.0 - -FingerJoint_style=rectangular - -FingerJoint_surroundingspaces=2.0 - -FingerJoint_edge_width=1.0 - -FingerJoint_extra_length=0.0 - -FingerJoint_finger=2.0 - -FingerJoint_play=0.0 - -FingerJoint_space=2.0 - -FingerJoint_width=1.0 - -x=150.0 - -y=80 - -h=60 - -outside=0 - -triangle=25.0 - -d1=2.0 - -d2=3.0 - -d3=3.0 - -outsidemounts=0 - -outsidemounts=1 - -holedist=7.0 - -thickness=3.0 - -format=svg - -tabs=0.0 - -debug=0 - -labels=0 - -reference=0 - -inner_corners=loop - -burn=0.1
Url: http://www.festi.info/ElectronicsBox?FingerJoint_angle=90.0&FingerJoint_style=rectangular&FingerJoint_surroundingspaces=2.0&FingerJoint_edge_width=1.0&FingerJoint_extra_length=0.0&FingerJoint_finger=2.0&FingerJoint_play=0.0&FingerJoint_space=2.0&FingerJoint_width=1.0&x=150.0&y=80&h=60&outside=0&triangle=25.0&d1=2.0&d2=3.0&d3=3.0&outsidemounts=0&outsidemounts=1&holedist=7.0&thickness=3.0&format=svg&tabs=0.0&debug=0&labels=0&reference=0&inner_corners=loop&burn=0.1&render=1
SettingsUrl: http://www.festi.info/ElectronicsBox?FingerJoint_angle=90.0&FingerJoint_style=rectangular&FingerJoint_surroundingspaces=2.0&FingerJoint_edge_width=1.0&FingerJoint_extra_length=0.0&FingerJoint_finger=2.0&FingerJoint_play=0.0&FingerJoint_space=2.0&FingerJoint_width=1.0&x=150.0&y=80&h=60&outside=0&triangle=25.0&d1=2.0&d2=3.0&d3=3.0&outsidemounts=0&outsidemounts=1&holedist=7.0&thickness=3.0&format=svg&tabs=0.0&debug=0&labels=0&reference=0&inner_corners=loop&burn=0.1
-->
  <title
     id="title1936">ElectronicsBox</title>
  <metadata
     id="metadata1938">
    <rdf:RDF>
      <cc:Work>
        <dc:title>ElectronicsBox</dc:title>
        <dc:date>2022-06-10 14:39:34</dc:date>
        <dc:source>http://www.festi.info/ElectronicsBox?FingerJoint_angle=90.0&amp;FingerJoint_style=rectangular&amp;FingerJoint_surroundingspaces=2.0&amp;FingerJoint_edge_width=1.0&amp;FingerJoint_extra_length=0.0&amp;FingerJoint_finger=2.0&amp;FingerJoint_play=0.0&amp;FingerJoint_space=2.0&amp;FingerJoint_width=1.0&amp;x=150.0&amp;y=80&amp;h=60&amp;outside=0&amp;triangle=25.0&amp;d1=2.0&amp;d2=3.0&amp;d3=3.0&amp;outsidemounts=0&amp;outsidemounts=1&amp;holedist=7.0&amp;thickness=3.0&amp;format=svg&amp;tabs=0.0&amp;debug=0&amp;labels=0&amp;reference=0&amp;inner_corners=loop&amp;burn=0.1&amp;render=1</dc:source>
        <dc:description>Closed box with screw on top and mounting holes

Created with Boxes.py (https://festi.info/boxes.py)
Command line: boxes ElectronicsBox --FingerJoint_angle=90.0 --FingerJoint_style=rectangular --FingerJoint_surroundingspaces=2.0 --FingerJoint_edge_width=1.0 --FingerJoint_extra_length=0.0 --FingerJoint_finger=2.0 --FingerJoint_play=0.0 --FingerJoint_space=2.0 --FingerJoint_width=1.0 --x=150.0 --y=80 --h=60 --outside=0 --triangle=25.0 --d1=2.0 --d2=3.0 --d3=3.0 --outsidemounts=0 --outsidemounts=1 --holedist=7.0 --thickness=3.0 --format=svg --tabs=0.0 --debug=0 --labels=0 --reference=0 --inner_corners=loop --burn=0.1
Url: http://www.festi.info/ElectronicsBox?FingerJoint_angle=90.0&amp;FingerJoint_style=rectangular&amp;FingerJoint_surroundingspaces=2.0&amp;FingerJoint_edge_width=1.0&amp;FingerJoint_extra_length=0.0&amp;FingerJoint_finger=2.0&amp;FingerJoint_play=0.0&amp;FingerJoint_space=2.0&amp;FingerJoint_width=1.0&amp;x=150.0&amp;y=80&amp;h=60&amp;outside=0&amp;triangle=25.0&amp;d1=2.0&amp;d2=3.0&amp;d3=3.0&amp;outsidemounts=0&amp;outsidemounts=1&amp;holedist=7.0&amp;thickness=3.0&amp;format=svg&amp;tabs=0.0&amp;debug=0&amp;labels=0&amp;reference=0&amp;inner_corners=loop&amp;burn=0.1&amp;render=1
SettingsUrl: http://www.festi.info/ElectronicsBox?FingerJoint_angle=90.0&amp;FingerJoint_style=rectangular&amp;FingerJoint_surroundingspaces=2.0&amp;FingerJoint_edge_width=1.0&amp;FingerJoint_extra_length=0.0&amp;FingerJoint_finger=2.0&amp;FingerJoint_play=0.0&amp;FingerJoint_space=2.0&amp;FingerJoint_width=1.0&amp;x=150.0&amp;y=80&amp;h=60&amp;outside=0&amp;triangle=25.0&amp;d1=2.0&amp;d2=3.0&amp;d3=3.0&amp;outsidemounts=0&amp;outsidemounts=1&amp;holedist=7.0&amp;thickness=3.0&amp;format=svg&amp;tabs=0.0&amp;debug=0&amp;labels=0&amp;reference=0&amp;inner_corners=loop&amp;burn=0.1
</dc:description>
      </cc:Work>
    </rdf:RDF>
  </metadata>
  <g
     id="p-0"
     style="fill:none;stroke-linecap:round;stroke-linejoin:round;">
    <path
       d="M 25.600 289.000 H 22.700 C 22.600 289.000 22.700 289.100 22.700 289.000 V 286.200 C 22.700 286.100 22.600 286.200 22.700 286.200 H 28.500 C 28.600 286.200 28.500 286.100 28.500 286.200 V 289.000 C 28.500 289.100 28.600 289.000 28.500 289.000 H 25.600 Z"
       stroke="rgb(0,0,255)"
       stroke-width="0.20"
       id="path1940" />
    <path
       d="M 150.600 286.200 H 153.500 C 153.600 286.200 153.500 286.100 153.500 286.200 V 289.000 C 153.500 289.100 153.600 289.000 153.500 289.000 H 147.700 C 147.600 289.000 147.700 289.100 147.700 289.000 V 286.200 C 147.700 286.100 147.600 286.200 147.700 286.200 H 150.600 Z"
       stroke="rgb(0,0,255)"
       stroke-width="0.20"
       id="path1942" />
    <path
       d="M 13.100 349.200 H 19.000 C 19.100 349.200 19.000 349.100 19.000 349.200 V 352.100 C 19.000 352.155 19.045 352.200 19.100 352.200 H 25.100 C 25.155 352.200 25.200 352.155 25.200 352.100 V 349.200 C 25.200 349.100 25.100 349.200 25.200 349.200 H 31.000 C 31.100 349.200 31.000 349.100 31.000 349.200 V 352.100 C 31.000 352.155 31.045 352.200 31.100 352.200 H 37.100 C 37.155 352.200 37.200 352.155 37.200 352.100 V 349.200 C 37.200 349.100 37.100 349.200 37.200 349.200 H 43.000 C 43.100 349.200 43.000 349.100 43.000 349.200 V 352.100 C 43.000 352.155 43.045 352.200 43.100 352.200 H 49.100 C 49.155 352.200 49.200 352.155 49.200 352.100 V 349.200 C 49.200 349.100 49.100 349.200 49.200 349.200 H 55.000 C 55.100 349.200 55.000 349.100 55.000 349.200 V 352.100 C 55.000 352.155 55.045 352.200 55.100 352.200 H 61.100 C 61.155 352.200 61.200 352.155 61.200 352.100 V 349.200 C 61.200 349.100 61.100 349.200 61.200 349.200 H 67.000 C 67.100 349.200 67.000 349.100 67.000 349.200 V 352.100 C 67.000 352.155 67.045 352.200 67.100 352.200 H 73.100 C 73.155 352.200 73.200 352.155 73.200 352.100 V 349.200 C 73.200 349.100 73.100 349.200 73.200 349.200 H 79.000 C 79.100 349.200 79.000 349.100 79.000 349.200 V 352.100 C 79.000 352.155 79.045 352.200 79.100 352.200 H 85.100 C 85.155 352.200 85.200 352.155 85.200 352.100 V 349.200 C 85.200 349.100 85.100 349.200 85.200 349.200 H 91.000 C 91.100 349.200 91.000 349.100 91.000 349.200 V 352.100 C 91.000 352.155 91.045 352.200 91.100 352.200 H 97.100 C 97.155 352.200 97.200 352.155 97.200 352.100 V 349.200 C 97.200 349.100 97.100 349.200 97.200 349.200 H 103.000 C 103.100 349.200 103.000 349.100 103.000 349.200 V 352.100 C 103.000 352.155 103.045 352.200 103.100 352.200 H 109.100 C 109.155 352.200 109.200 352.155 109.200 352.100 V 349.200 C 109.200 349.100 109.100 349.200 109.200 349.200 H 115.000 C 115.100 349.200 115.000 349.100 115.000 349.200 V 352.100 C 115.000 352.155 115.045 352.200 115.100 352.200 H 121.100 C 121.155 352.200 121.200 352.155 121.200 352.100 V 349.200 C 121.200 349.100 121.100 349.200 121.200 349.200 H 127.000 C 127.100 349.200 127.000 349.100 127.000 349.200 V 352.100 C 127.000 352.155 127.045 352.200 127.100 352.200 H 133.100 C 133.155 352.200 133.200 352.155 133.200 352.100 V 349.200 C 133.200 349.100 133.100 349.200 133.200 349.200 H 139.000 C 139.100 349.200 139.000 349.100 139.000 349.200 V 352.100 C 139.000 352.155 139.045 352.200 139.100 352.200 H 145.100 C 145.155 352.200 145.200 352.155 145.200 352.100 V 349.200 C 145.200 349.100 145.100 349.200 145.200 349.200 H 151.000 C 151.100 349.200 151.000 349.100 151.000 349.200 V 352.100 C 151.000 352.155 151.045 352.200 151.100 352.200 H 157.100 C 157.155 352.200 157.200 352.155 157.200 352.100 V 349.200 C 157.200 349.100 157.100 349.200 157.200 349.200 H 163.100 H 166.100 C 166.155 349.200 166.200 349.155 166.200 349.100 V 343.100 C 166.200 343.045 166.155 343.000 166.100 343.000 H 163.200 C 163.100 343.000 163.200 343.100 163.200 343.000 V 337.200 C 163.200 337.100 163.100 337.200 163.200 337.200 H 166.100 C 166.155 337.200 166.200 337.155 166.200 337.100 V 331.100 C 166.200 331.045 166.155 331.000 166.100 331.000 H 163.200 C 163.100 331.000 163.200 331.100 163.200 331.000 V 325.200 C 163.200 325.100 163.100 325.200 163.200 325.200 H 166.100 C 166.155 325.200 166.200 325.155 166.200 325.100 V 319.100 C 166.200 319.045 166.155 319.000 166.100 319.000 H 163.200 C 163.100 319.000 163.200 319.100 163.200 319.000 V 313.200 C 163.200 313.100 163.100 313.200 163.200 313.200 H 166.100 C 166.155 313.200 166.200 313.155 166.200 313.100 V 307.100 C 166.200 307.045 166.155 307.000 166.100 307.000 H 163.200 C 163.100 307.000 163.200 307.100 163.200 307.000 V 301.200 C 163.200 301.100 163.100 301.200 163.200 301.200 H 166.100 C 166.155 301.200 166.200 301.155 166.200 301.100 V 295.100 C 166.200 295.045 166.155 295.000 166.100 295.000 H 163.200 C 163.100 295.000 163.200 295.100 163.200 295.000 V 289.200 C 163.200 289.100 163.100 289.200 163.200 289.200 H 166.100 C 166.155 289.200 166.200 289.155 166.200 289.100 V 283.100 C 166.200 283.045 166.155 283.000 166.100 283.000 H 163.100 H 13.100 H 10.100 C 10.045 283.000 10.000 283.045 10.000 283.100 V 289.100 C 10.000 289.155 10.045 289.200 10.100 289.200 H 13.000 C 13.100 289.200 13.000 289.100 13.000 289.200 V 295.000 C 13.000 295.100 13.100 295.000 13.000 295.000 H 10.100 C 10.045 295.000 10.000 295.045 10.000 295.100 V 301.100 C 10.000 301.155 10.045 301.200 10.100 301.200 H 13.000 C 13.100 301.200 13.000 301.100 13.000 301.200 V 307.000 C 13.000 307.100 13.100 307.000 13.000 307.000 H 10.100 C 10.045 307.000 10.000 307.045 10.000 307.100 V 313.100 C 10.000 313.155 10.045 313.200 10.100 313.200 H 13.000 C 13.100 313.200 13.000 313.100 13.000 313.200 V 319.000 C 13.000 319.100 13.100 319.000 13.000 319.000 H 10.100 C 10.045 319.000 10.000 319.045 10.000 319.100 V 325.100 C 10.000 325.155 10.045 325.200 10.100 325.200 H 13.000 C 13.100 325.200 13.000 325.100 13.000 325.200 V 331.000 C 13.000 331.100 13.100 331.000 13.000 331.000 H 10.100 C 10.045 331.000 10.000 331.045 10.000 331.100 V 337.100 C 10.000 337.155 10.045 337.200 10.100 337.200 H 13.000 C 13.100 337.200 13.000 337.100 13.000 337.200 V 343.000 C 13.000 343.100 13.100 343.000 13.000 343.000 H 10.100 C 10.045 343.000 10.000 343.045 10.000 343.100 V 349.100 C 10.000 349.155 10.045 349.200 10.100 349.200 H 13.100 Z"
       stroke="rgb(0,0,0)"
       stroke-width="0.20"
       id="path1944" />
  </g>
  <g
     id="p-1"
     style="fill:none;stroke-linecap:round;stroke-linejoin:round;">
    <path
       d="M 183.300 289.000 H 180.400 C 180.300 289.000 180.400 289.100 180.400 289.000 V 286.200 C 180.400 286.100 180.300 286.200 180.400 286.200 H 186.200 C 186.300 286.200 186.200 286.100 186.200 286.200 V 289.000 C 186.200 289.100 186.300 289.000 186.200 289.000 H 183.300 Z"
       stroke="rgb(0,0,255)"
       stroke-width="0.20"
       id="path1947" />
    <path
       d="M 238.300 286.200 H 241.200 C 241.300 286.200 241.200 286.100 241.200 286.200 V 289.000 C 241.200 289.100 241.300 289.000 241.200 289.000 H 235.400 C 235.300 289.000 235.400 289.100 235.400 289.000 V 286.200 C 235.400 286.100 235.300 286.200 235.400 286.200 H 238.300 Z"
       stroke="rgb(0,0,255)"
       stroke-width="0.20"
       id="path1949" />
    <path
       d="M 170.800 349.200 H 177.700 C 177.800 349.200 177.700 349.100 177.700 349.200 V 352.100 C 177.700 352.155 177.745 352.200 177.800 352.200 H 183.800 C 183.855 352.200 183.900 352.155 183.900 352.100 V 349.200 C 183.900 349.100 183.800 349.200 183.900 349.200 H 189.700 C 189.800 349.200 189.700 349.100 189.700 349.200 V 352.100 C 189.700 352.155 189.745 352.200 189.800 352.200 H 195.800 C 195.855 352.200 195.900 352.155 195.900 352.100 V 349.200 C 195.900 349.100 195.800 349.200 195.900 349.200 H 201.700 C 201.800 349.200 201.700 349.100 201.700 349.200 V 352.100 C 201.700 352.155 201.745 352.200 201.800 352.200 H 207.800 C 207.855 352.200 207.900 352.155 207.900 352.100 V 349.200 C 207.900 349.100 207.800 349.200 207.900 349.200 H 213.700 C 213.800 349.200 213.700 349.100 213.700 349.200 V 352.100 C 213.700 352.155 213.745 352.200 213.800 352.200 H 219.800 C 219.855 352.200 219.900 352.155 219.900 352.100 V 349.200 C 219.900 349.100 219.800 349.200 219.900 349.200 H 225.700 C 225.800 349.200 225.700 349.100 225.700 349.200 V 352.100 C 225.700 352.155 225.745 352.200 225.800 352.200 H 231.800 C 231.855 352.200 231.900 352.155 231.900 352.100 V 349.200 C 231.900 349.100 231.800 349.200 231.900 349.200 H 237.700 C 237.800 349.200 237.700 349.100 237.700 349.200 V 352.100 C 237.700 352.155 237.745 352.200 237.800 352.200 H 243.800 C 243.855 352.200 243.900 352.155 243.900 352.100 V 349.200 C 243.900 349.100 243.800 349.200 243.900 349.200 H 250.800 C 250.855 349.200 250.900 349.155 250.900 349.100 V 343.200 C 250.900 343.100 250.800 343.200 250.900 343.200 H 253.800 C 253.855 343.200 253.900 343.155 253.900 343.100 V 337.100 C 253.900 337.045 253.855 337.000 253.800 337.000 H 250.900 C 250.800 337.000 250.900 337.100 250.900 337.000 V 331.200 C 250.900 331.100 250.800 331.200 250.900 331.200 H 253.800 C 253.855 331.200 253.900 331.155 253.900 331.100 V 325.100 C 253.900 325.045 253.855 325.000 253.800 325.000 H 250.900 C 250.800 325.000 250.900 325.100 250.900 325.000 V 319.200 C 250.900 319.100 250.800 319.200 250.900 319.200 H 253.800 C 253.855 319.200 253.900 319.155 253.900 319.100 V 313.100 C 253.900 313.045 253.855 313.000 253.800 313.000 H 250.900 C 250.800 313.000 250.900 313.100 250.900 313.000 V 307.200 C 250.900 307.100 250.800 307.200 250.900 307.200 H 253.800 C 253.855 307.200 253.900 307.155 253.900 307.100 V 301.100 C 253.900 301.045 253.855 301.000 253.800 301.000 H 250.900 C 250.800 301.000 250.900 301.100 250.900 301.000 V 295.200 C 250.900 295.100 250.800 295.200 250.900 295.200 H 253.800 C 253.855 295.200 253.900 295.155 253.900 295.100 V 289.100 C 253.900 289.045 253.855 289.000 253.800 289.000 H 250.900 C 250.800 289.000 250.900 289.100 250.900 289.000 V 283.100 C 250.900 283.045 250.855 283.000 250.800 283.000 H 170.800 C 170.745 283.000 170.700 283.045 170.700 283.100 V 289.000 C 170.700 289.100 170.800 289.000 170.700 289.000 H 167.800 C 167.745 289.000 167.700 289.045 167.700 289.100 V 295.100 C 167.700 295.155 167.745 295.200 167.800 295.200 H 170.700 C 170.800 295.200 170.700 295.100 170.700 295.200 V 301.000 C 170.700 301.100 170.800 301.000 170.700 301.000 H 167.800 C 167.745 301.000 167.700 301.045 167.700 301.100 V 307.100 C 167.700 307.155 167.745 307.200 167.800 307.200 H 170.700 C 170.800 307.200 170.700 307.100 170.700 307.200 V 313.000 C 170.700 313.100 170.800 313.000 170.700 313.000 H 167.800 C 167.745 313.000 167.700 313.045 167.700 313.100 V 319.100 C 167.700 319.155 167.745 319.200 167.800 319.200 H 170.700 C 170.800 319.200 170.700 319.100 170.700 319.200 V 325.000 C 170.700 325.100 170.800 325.000 170.700 325.000 H 167.800 C 167.745 325.000 167.700 325.045 167.700 325.100 V 331.100 C 167.700 331.155 167.745 331.200 167.800 331.200 H 170.700 C 170.800 331.200 170.700 331.100 170.700 331.200 V 337.000 C 170.700 337.100 170.800 337.000 170.700 337.000 H 167.800 C 167.745 337.000 167.700 337.045 167.700 337.100 V 343.100 C 167.700 343.155 167.745 343.200 167.800 343.200 H 170.700 C 170.800 343.200 170.700 343.100 170.700 343.200 V 349.100 C 170.700 349.155 170.745 349.200 170.800 349.200 Z"
       stroke="rgb(0,0,0)"
       stroke-width="0.20"
       id="path1951" />
  </g>
  <g
     id="p-2"
     style="fill:none;stroke-linecap:round;stroke-linejoin:round;">
    <path
       d="M 183.300 218.300 H 180.400 C 180.300 218.300 180.400 218.400 180.400 218.300 V 215.500 C 180.400 215.400 180.300 215.500 180.400 215.500 H 186.200 C 186.300 215.500 186.200 215.400 186.200 215.500 V 218.300 C 186.200 218.400 186.300 218.300 186.200 218.300 H 183.300 Z"
       stroke="rgb(0,0,255)"
       stroke-width="0.20"
       id="path1954" />
    <path
       d="M 238.300 215.500 H 241.200 C 241.300 215.500 241.200 215.400 241.200 215.500 V 218.300 C 241.200 218.400 241.300 218.300 241.200 218.300 H 235.400 C 235.300 218.300 235.400 218.400 235.400 218.300 V 215.500 C 235.400 215.400 235.300 215.500 235.400 215.500 H 238.300 Z"
       stroke="rgb(0,0,255)"
       stroke-width="0.20"
       id="path1956" />
    <path
       d="M 170.800 278.500 H 177.700 C 177.800 278.500 177.700 278.400 177.700 278.500 V 281.400 C 177.700 281.455 177.745 281.500 177.800 281.500 H 183.800 C 183.855 281.500 183.900 281.455 183.900 281.400 V 278.500 C 183.900 278.400 183.800 278.500 183.900 278.500 H 189.700 C 189.800 278.500 189.700 278.400 189.700 278.500 V 281.400 C 189.700 281.455 189.745 281.500 189.800 281.500 H 195.800 C 195.855 281.500 195.900 281.455 195.900 281.400 V 278.500 C 195.900 278.400 195.800 278.500 195.900 278.500 H 201.700 C 201.800 278.500 201.700 278.400 201.700 278.500 V 281.400 C 201.700 281.455 201.745 281.500 201.800 281.500 H 207.800 C 207.855 281.500 207.900 281.455 207.900 281.400 V 278.500 C 207.900 278.400 207.800 278.500 207.900 278.500 H 213.700 C 213.800 278.500 213.700 278.400 213.700 278.500 V 281.400 C 213.700 281.455 213.745 281.500 213.800 281.500 H 219.800 C 219.855 281.500 219.900 281.455 219.900 281.400 V 278.500 C 219.900 278.400 219.800 278.500 219.900 278.500 H 225.700 C 225.800 278.500 225.700 278.400 225.700 278.500 V 281.400 C 225.700 281.455 225.745 281.500 225.800 281.500 H 231.800 C 231.855 281.500 231.900 281.455 231.900 281.400 V 278.500 C 231.900 278.400 231.800 278.500 231.900 278.500 H 237.700 C 237.800 278.500 237.700 278.400 237.700 278.500 V 281.400 C 237.700 281.455 237.745 281.500 237.800 281.500 H 243.800 C 243.855 281.500 243.900 281.455 243.900 281.400 V 278.500 C 243.900 278.400 243.800 278.500 243.900 278.500 H 250.800 C 250.855 278.500 250.900 278.455 250.900 278.400 V 272.500 C 250.900 272.400 250.800 272.500 250.900 272.500 H 253.800 C 253.855 272.500 253.900 272.455 253.900 272.400 V 266.400 C 253.900 266.345 253.855 266.300 253.800 266.300 H 250.900 C 250.800 266.300 250.900 266.400 250.900 266.300 V 260.500 C 250.900 260.400 250.800 260.500 250.900 260.500 H 253.800 C 253.855 260.500 253.900 260.455 253.900 260.400 V 254.400 C 253.900 254.345 253.855 254.300 253.800 254.300 H 250.900 C 250.800 254.300 250.900 254.400 250.900 254.300 V 248.500 C 250.900 248.400 250.800 248.500 250.900 248.500 H 253.800 C 253.855 248.500 253.900 248.455 253.900 248.400 V 242.400 C 253.900 242.345 253.855 242.300 253.800 242.300 H 250.900 C 250.800 242.300 250.900 242.400 250.900 242.300 V 236.500 C 250.900 236.400 250.800 236.500 250.900 236.500 H 253.800 C 253.855 236.500 253.900 236.455 253.900 236.400 V 230.400 C 253.900 230.345 253.855 230.300 253.800 230.300 H 250.900 C 250.800 230.300 250.900 230.400 250.900 230.300 V 224.500 C 250.900 224.400 250.800 224.500 250.900 224.500 H 253.800 C 253.855 224.500 253.900 224.455 253.900 224.400 V 218.400 C 253.900 218.345 253.855 218.300 253.800 218.300 H 250.900 C 250.800 218.300 250.900 218.400 250.900 218.300 V 212.400 C 250.900 212.345 250.855 212.300 250.800 212.300 H 170.800 C 170.745 212.300 170.700 212.345 170.700 212.400 V 218.300 C 170.700 218.400 170.800 218.300 170.700 218.300 H 167.800 C 167.745 218.300 167.700 218.345 167.700 218.400 V 224.400 C 167.700 224.455 167.745 224.500 167.800 224.500 H 170.700 C 170.800 224.500 170.700 224.400 170.700 224.500 V 230.300 C 170.700 230.400 170.800 230.300 170.700 230.300 H 167.800 C 167.745 230.300 167.700 230.345 167.700 230.400 V 236.400 C 167.700 236.455 167.745 236.500 167.800 236.500 H 170.700 C 170.800 236.500 170.700 236.400 170.700 236.500 V 242.300 C 170.700 242.400 170.800 242.300 170.700 242.300 H 167.800 C 167.745 242.300 167.700 242.345 167.700 242.400 V 248.400 C 167.700 248.455 167.745 248.500 167.800 248.500 H 170.700 C 170.800 248.500 170.700 248.400 170.700 248.500 V 254.300 C 170.700 254.400 170.800 254.300 170.700 254.300 H 167.800 C 167.745 254.300 167.700 254.345 167.700 254.400 V 260.400 C 167.700 260.455 167.745 260.500 167.800 260.500 H 170.700 C 170.800 260.500 170.700 260.400 170.700 260.500 V 266.300 C 170.700 266.400 170.800 266.300 170.700 266.300 H 167.800 C 167.745 266.300 167.700 266.345 167.700 266.400 V 272.400 C 167.700 272.455 167.745 272.500 167.800 272.500 H 170.700 C 170.800 272.500 170.700 272.400 170.700 272.500 V 278.400 C 170.700 278.455 170.745 278.500 170.800 278.500 Z"
       stroke="rgb(0,0,0)"
       stroke-width="0.20"
       id="path1958" />
  </g>
  <g
     id="p-3"
     style="fill:none;stroke-linecap:round;stroke-linejoin:round;">
    <path
       d="M 25.600 218.300 H 22.700 C 22.600 218.300 22.700 218.400 22.700 218.300 V 215.500 C 22.700 215.400 22.600 215.500 22.700 215.500 H 28.500 C 28.600 215.500 28.500 215.400 28.500 215.500 V 218.300 C 28.500 218.400 28.600 218.300 28.500 218.300 H 25.600 Z"
       stroke="rgb(0,0,255)"
       stroke-width="0.20"
       id="path1961" />
    <path
       d="M 150.600 215.500 H 153.500 C 153.600 215.500 153.500 215.400 153.500 215.500 V 218.300 C 153.500 218.400 153.600 218.300 153.500 218.300 H 147.700 C 147.600 218.300 147.700 218.400 147.700 218.300 V 215.500 C 147.700 215.400 147.600 215.500 147.700 215.500 H 150.600 Z"
       stroke="rgb(0,0,255)"
       stroke-width="0.20"
       id="path1963" />
    <path
       d="M 13.100 278.500 H 19.000 C 19.100 278.500 19.000 278.400 19.000 278.500 V 281.400 C 19.000 281.455 19.045 281.500 19.100 281.500 H 25.100 C 25.155 281.500 25.200 281.455 25.200 281.400 V 278.500 C 25.200 278.400 25.100 278.500 25.200 278.500 H 31.000 C 31.100 278.500 31.000 278.400 31.000 278.500 V 281.400 C 31.000 281.455 31.045 281.500 31.100 281.500 H 37.100 C 37.155 281.500 37.200 281.455 37.200 281.400 V 278.500 C 37.200 278.400 37.100 278.500 37.200 278.500 H 43.000 C 43.100 278.500 43.000 278.400 43.000 278.500 V 281.400 C 43.000 281.455 43.045 281.500 43.100 281.500 H 49.100 C 49.155 281.500 49.200 281.455 49.200 281.400 V 278.500 C 49.200 278.400 49.100 278.500 49.200 278.500 H 55.000 C 55.100 278.500 55.000 278.400 55.000 278.500 V 281.400 C 55.000 281.455 55.045 281.500 55.100 281.500 H 61.100 C 61.155 281.500 61.200 281.455 61.200 281.400 V 278.500 C 61.200 278.400 61.100 278.500 61.200 278.500 H 67.000 C 67.100 278.500 67.000 278.400 67.000 278.500 V 281.400 C 67.000 281.455 67.045 281.500 67.100 281.500 H 73.100 C 73.155 281.500 73.200 281.455 73.200 281.400 V 278.500 C 73.200 278.400 73.100 278.500 73.200 278.500 H 79.000 C 79.100 278.500 79.000 278.400 79.000 278.500 V 281.400 C 79.000 281.455 79.045 281.500 79.100 281.500 H 85.100 C 85.155 281.500 85.200 281.455 85.200 281.400 V 278.500 C 85.200 278.400 85.100 278.500 85.200 278.500 H 91.000 C 91.100 278.500 91.000 278.400 91.000 278.500 V 281.400 C 91.000 281.455 91.045 281.500 91.100 281.500 H 97.100 C 97.155 281.500 97.200 281.455 97.200 281.400 V 278.500 C 97.200 278.400 97.100 278.500 97.200 278.500 H 103.000 C 103.100 278.500 103.000 278.400 103.000 278.500 V 281.400 C 103.000 281.455 103.045 281.500 103.100 281.500 H 109.100 C 109.155 281.500 109.200 281.455 109.200 281.400 V 278.500 C 109.200 278.400 109.100 278.500 109.200 278.500 H 115.000 C 115.100 278.500 115.000 278.400 115.000 278.500 V 281.400 C 115.000 281.455 115.045 281.500 115.100 281.500 H 121.100 C 121.155 281.500 121.200 281.455 121.200 281.400 V 278.500 C 121.200 278.400 121.100 278.500 121.200 278.500 H 127.000 C 127.100 278.500 127.000 278.400 127.000 278.500 V 281.400 C 127.000 281.455 127.045 281.500 127.100 281.500 H 133.100 C 133.155 281.500 133.200 281.455 133.200 281.400 V 278.500 C 133.200 278.400 133.100 278.500 133.200 278.500 H 139.000 C 139.100 278.500 139.000 278.400 139.000 278.500 V 281.400 C 139.000 281.455 139.045 281.500 139.100 281.500 H 145.100 C 145.155 281.500 145.200 281.455 145.200 281.400 V 278.500 C 145.200 278.400 145.100 278.500 145.200 278.500 H 151.000 C 151.100 278.500 151.000 278.400 151.000 278.500 V 281.400 C 151.000 281.455 151.045 281.500 151.100 281.500 H 157.100 C 157.155 281.500 157.200 281.455 157.200 281.400 V 278.500 C 157.200 278.400 157.100 278.500 157.200 278.500 H 163.100 H 166.100 C 166.155 278.500 166.200 278.455 166.200 278.400 V 272.400 C 166.200 272.345 166.155 272.300 166.100 272.300 H 163.200 C 163.100 272.300 163.200 272.400 163.200 272.300 V 266.500 C 163.200 266.400 163.100 266.500 163.200 266.500 H 166.100 C 166.155 266.500 166.200 266.455 166.200 266.400 V 260.400 C 166.200 260.345 166.155 260.300 166.100 260.300 H 163.200 C 163.100 260.300 163.200 260.400 163.200 260.300 V 254.500 C 163.200 254.400 163.100 254.500 163.200 254.500 H 166.100 C 166.155 254.500 166.200 254.455 166.200 254.400 V 248.400 C 166.200 248.345 166.155 248.300 166.100 248.300 H 163.200 C 163.100 248.300 163.200 248.400 163.200 248.300 V 242.500 C 163.200 242.400 163.100 242.500 163.200 242.500 H 166.100 C 166.155 242.500 166.200 242.455 166.200 242.400 V 236.400 C 166.200 236.345 166.155 236.300 166.100 236.300 H 163.200 C 163.100 236.300 163.200 236.400 163.200 236.300 V 230.500 C 163.200 230.400 163.100 230.500 163.200 230.500 H 166.100 C 166.155 230.500 166.200 230.455 166.200 230.400 V 224.400 C 166.200 224.345 166.155 224.300 166.100 224.300 H 163.200 C 163.100 224.300 163.200 224.400 163.200 224.300 V 218.500 C 163.200 218.400 163.100 218.500 163.200 218.500 H 166.100 C 166.155 218.500 166.200 218.455 166.200 218.400 V 212.400 C 166.200 212.345 166.155 212.300 166.100 212.300 H 163.100 H 13.100 H 10.100 C 10.045 212.300 10.000 212.345 10.000 212.400 V 218.400 C 10.000 218.455 10.045 218.500 10.100 218.500 H 13.000 C 13.100 218.500 13.000 218.400 13.000 218.500 V 224.300 C 13.000 224.400 13.100 224.300 13.000 224.300 H 10.100 C 10.045 224.300 10.000 224.345 10.000 224.400 V 230.400 C 10.000 230.455 10.045 230.500 10.100 230.500 H 13.000 C 13.100 230.500 13.000 230.400 13.000 230.500 V 236.300 C 13.000 236.400 13.100 236.300 13.000 236.300 H 10.100 C 10.045 236.300 10.000 236.345 10.000 236.400 V 242.400 C 10.000 242.455 10.045 242.500 10.100 242.500 H 13.000 C 13.100 242.500 13.000 242.400 13.000 242.500 V 248.300 C 13.000 248.400 13.100 248.300 13.000 248.300 H 10.100 C 10.045 248.300 10.000 248.345 10.000 248.400 V 254.400 C 10.000 254.455 10.045 254.500 10.100 254.500 H 13.000 C 13.100 254.500 13.000 254.400 13.000 254.500 V 260.300 C 13.000 260.400 13.100 260.300 13.000 260.300 H 10.100 C 10.045 260.300 10.000 260.345 10.000 260.400 V 266.400 C 10.000 266.455 10.045 266.500 10.100 266.500 H 13.000 C 13.100 266.500 13.000 266.400 13.000 266.500 V 272.300 C 13.000 272.400 13.100 272.300 13.000 272.300 H 10.100 C 10.045 272.300 10.000 272.345 10.000 272.400 V 278.400 C 10.000 278.455 10.045 278.500 10.100 278.500 H 13.100 Z"
       stroke="rgb(0,0,0)"
       stroke-width="0.20"
       id="path1965" />
  </g>
  <path
     d="m 18.5,203.7 c 0,0.268 -0.077,0.531 -0.222,0.757 -0.145,0.226 -0.352,0.405 -0.596,0.516 -0.245,0.112 -0.516,0.151 -0.781,0.113 -0.266,-0.038 -0.515,-0.152 -0.718,-0.328 -0.203,-0.176 -0.351,-0.406 -0.426,-0.664 -0.076,-0.257 -0.076,-0.531 0,-0.788 0.075,-0.258 0.223,-0.488 0.426,-0.664 0.203,-0.176 0.452,-0.29 0.718,-0.328 0.265,-0.038 0.536,0.001 0.781,0.113 0.244,0.111 0.451,0.29 0.596,0.516 0.145,0.226 0.222,0.489 0.222,0.757 z"
     stroke="#0000ff"
     stroke-width="0.2"
     id="path1968"
     style="fill:none;stroke-linecap:round;stroke-linejoin:round" />
  <path
     d="m 17.1,210.8 h 10 6 c 0.055,0 0.1,-0.045 0.1,-0.1 v -2.9 c 0,-0.1 -0.1,0 0,0 H 39 c 0.1,0 0,-0.1 0,0 v 2.9 c 0,0.055 0.045,0.1 0.1,0.1 h 6 c 0.055,0 0.1,-0.045 0.1,-0.1 v -2.9 c 0,-0.1 -0.1,0 0,0 H 51 c 0.1,0 0,-0.1 0,0 v 2.9 c 0,0.055 0.045,0.1 0.1,0.1 h 6 c 0.055,0 0.1,-0.045 0.1,-0.1 v -2.9 c 0,-0.1 -0.1,0 0,0 H 63 c 0.1,0 0,-0.1 0,0 v 2.9 c 0,0.055 0.045,0.1 0.1,0.1 h 6 c 0.055,0 0.1,-0.045 0.1,-0.1 v -2.9 c 0,-0.1 -0.1,0 0,0 H 75 c 0.1,0 0,-0.1 0,0 v 2.9 c 0,0.055 0.045,0.1 0.1,0.1 h 6 c 0.055,0 0.1,-0.045 0.1,-0.1 v -2.9 c 0,-0.1 -0.1,0 0,0 H 87 c 0.1,0 0,-0.1 0,0 v 2.9 c 0,0.055 0.045,0.1 0.1,0.1 h 6 c 0.055,0 0.1,-0.045 0.1,-0.1 v -2.9 c 0,-0.1 -0.1,0 0,0 H 99 c 0.1,0 0,-0.1 0,0 v 2.9 c 0,0.055 0.045,0.1 0.1,0.1 h 6 c 0.055,0 0.1,-0.045 0.1,-0.1 v -2.9 c 0,-0.1 -0.1,0 0,0 h 5.8 c 0.1,0 0,-0.1 0,0 v 2.9 c 0,0.055 0.045,0.1 0.1,0.1 h 6 c 0.055,0 0.1,-0.045 0.1,-0.1 v -2.9 c 0,-0.1 -0.1,0 0,0 h 5.8 c 0.1,0 0,-0.1 0,0 v 2.9 c 0,0.055 0.045,0.1 0.1,0.1 h 6 c 0.055,0 0.1,-0.045 0.1,-0.1 v -2.9 c 0,-0.1 -0.1,0 0,0 h 5.8 c 0.1,0 0,-0.1 0,0 v 2.9 c 0,0.055 0.045,0.1 0.1,0.1 h 6 c 0.055,0 0.1,-0.045 0.1,-0.1 v -2.9 c 0,-0.1 -0.1,0 0,0 h 5.8 c 0.1,0 0,-0.1 0,0 v 2.9 c 0,0.055 0.045,0.1 0.1,0.1 h 6 c 0.055,0 0.1,-0.045 0.1,-0.1 v -2.9 c 0,-0.1 -0.1,0 0,0 h 5.8 c 0.1,0 0,-0.1 0,0 v 2.9 c 0,0.055 0.045,0.1 0.1,0.1 h 6 c 0.055,0 0.1,-0.045 0.1,-0.1 v -2.9 c 0,-0.1 -0.1,0 0,0 h 5.8 c 0.1,0 0,-0.1 0,0 v 2.9 c 0,0.055 0.045,0.1 0.1,0.1 h 6 10 c 1.246,0 2.471,-0.328 3.55,-0.951 1.079,-0.623 1.976,-1.52 2.599,-2.599 0.623,-1.079 0.951,-2.304 0.951,-3.55 v -72 c 0,-1.246 -0.328,-2.471 -0.951,-3.55 -0.623,-1.079 -1.52,-1.976 -2.599,-2.599 -1.079,-0.623 -2.304,-0.951 -3.55,-0.951 h -10 -6 c -0.055,0 -0.1,0.045 -0.1,0.1 v 2.9 c 0,0.1 0.1,0 0,0 h -5.8 c -0.1,0 0,0.1 0,0 v -2.9 c 0,-0.055 -0.045,-0.1 -0.1,-0.1 h -6 c -0.055,0 -0.1,0.045 -0.1,0.1 v 2.9 c 0,0.1 0.1,0 0,0 h -5.8 c -0.1,0 0,0.1 0,0 v -2.9 c 0,-0.055 -0.045,-0.1 -0.1,-0.1 h -6 c -0.055,0 -0.1,0.045 -0.1,0.1 v 2.9 c 0,0.1 0.1,0 0,0 h -5.8 c -0.1,0 0,0.1 0,0 v -2.9 c 0,-0.055 -0.045,-0.1 -0.1,-0.1 h -6 c -0.055,0 -0.1,0.045 -0.1,0.1 v 2.9 c 0,0.1 0.1,0 0,0 h -5.8 c -0.1,0 0,0.1 0,0 v -2.9 c 0,-0.055 -0.045,-0.1 -0.1,-0.1 h -6 c -0.055,0 -0.1,0.045 -0.1,0.1 v 2.9 c 0,0.1 0.1,0 0,0 h -5.8 c -0.1,0 0,0.1 0,0 v -2.9 c 0,-0.055 -0.045,-0.1 -0.1,-0.1 h -6 c -0.055,0 -0.1,0.045 -0.1,0.1 v 2.9 c 0,0.1 0.1,0 0,0 h -5.8 c -0.1,0 0,0.1 0,0 v -2.9 c 0,-0.055 -0.045,-0.1 -0.1,-0.1 h -6 c -0.055,0 -0.1,0.045 -0.1,0.1 v 2.9 c 0,0.1 0.1,0 0,0 h -5.8 c -0.1,0 0,0.1 0,0 v -2.9 c 0,-0.055 -0.045,-0.1 -0.1,-0.1 h -6 c -0.055,0 -0.1,0.045 -0.1,0.1 v 2.9 c 0,0.1 0.1,0 0,0 h -5.8 c -0.1,0 0,0.1 0,0 v -2.9 c 0,-0.055 -0.045,-0.1 -0.1,-0.1 h -6 c -0.055,0 -0.1,0.045 -0.1,0.1 v 2.9 c 0,0.1 0.1,0 0,0 h -5.8 c -0.1,0 0,0.1 0,0 v -2.9 c 0,-0.055 -0.045,-0.1 -0.1,-0.1 h -6 c -0.055,0 -0.1,0.045 -0.1,0.1 v 2.9 c 0,0.1 0.1,0 0,0 h -5.8 c -0.1,0 0,0.1 0,0 v -2.9 c 0,-0.055 -0.045,-0.1 -0.1,-0.1 h -6 c -0.055,0 -0.1,0.045 -0.1,0.1 v 2.9 c 0,0.1 0.1,0 0,0 h -5.8 c -0.1,0 0,0.1 0,0 v -2.9 c 0,-0.055 -0.045,-0.1 -0.1,-0.1 h -6 c -0.055,0 -0.1,0.045 -0.1,0.1 v 2.9 c 0,0.1 0.1,0 0,0 h -5.8 c -0.1,0 0,0.1 0,0 v -2.9 c 0,-0.055 -0.045,-0.1 -0.1,-0.1 h -6 -10 c -1.246,0 -2.471,0.328 -3.55,0.951 -1.079,0.623 -1.976,1.52 -2.599,2.599 C 10.328,129.229 10,130.454 10,131.7 v 72 c 0,1.246 0.328,2.471 0.951,3.55 0.623,1.079 1.52,1.976 2.599,2.599 1.079,0.623 2.304,0.951 3.55,0.951 z"
     stroke="#000000"
     stroke-width="0.2"
     id="path1970"
     style="fill:none;stroke-linecap:round;stroke-linejoin:round" />
  <path
     d="m 187.1,202.3 c 0.268,0 0.531,0.077 0.757,0.222 0.226,0.145 0.405,0.352 0.516,0.596 0.112,0.245 0.151,0.516 0.113,0.781 -0.038,0.266 -0.152,0.515 -0.328,0.718 -0.176,0.203 -0.406,0.351 -0.664,0.426 -0.257,0.076 -0.531,0.076 -0.788,0 -0.258,-0.075 -0.488,-0.223 -0.664,-0.426 -0.176,-0.203 -0.29,-0.452 -0.328,-0.718 -0.038,-0.265 0.001,-0.536 0.113,-0.781 0.111,-0.244 0.29,-0.451 0.516,-0.596 0.226,-0.145 0.489,-0.222 0.757,-0.222 z"
     stroke="#0000ff"
     stroke-width="0.2"
     id="path1972"
     style="fill:none;stroke-linecap:round;stroke-linejoin:round" />
  <path
     d="m 180.1,197.7 v 2.9 c 0,0.1 0.1,0 0,0 h -2.8 c -0.1,0 0,0.1 0,0 v -5.8 c 0,-0.1 -0.1,0 0,0 h 2.8 c 0.1,0 0,-0.1 0,0 z"
     stroke="#0000ff"
     stroke-width="0.2"
     id="path1974"
     style="fill:none;stroke-linecap:round;stroke-linejoin:round" />
  <path
     d="m 180.1,185.7 v 2.9 c 0,0.1 0.1,0 0,0 h -2.8 c -0.1,0 0,0.1 0,0 v -5.8 c 0,-0.1 -0.1,0 0,0 h 2.8 c 0.1,0 0,-0.1 0,0 z"
     stroke="#0000ff"
     stroke-width="0.2"
     id="path1976"
     style="fill:none;stroke-linecap:round;stroke-linejoin:round" />
  <path
     d="m 180.1,173.7 v 2.9 c 0,0.1 0.1,0 0,0 h -2.8 c -0.1,0 0,0.1 0,0 v -5.8 c 0,-0.1 -0.1,0 0,0 h 2.8 c 0.1,0 0,-0.1 0,0 z"
     stroke="#0000ff"
     stroke-width="0.2"
     id="path1978"
     style="fill:none;stroke-linecap:round;stroke-linejoin:round" />
  <path
     d="m 180.1,161.7 v 2.9 c 0,0.1 0.1,0 0,0 h -2.8 c -0.1,0 0,0.1 0,0 v -5.8 c 0,-0.1 -0.1,0 0,0 h 2.8 c 0.1,0 0,-0.1 0,0 z"
     stroke="#0000ff"
     stroke-width="0.2"
     id="path1980"
     style="fill:none;stroke-linecap:round;stroke-linejoin:round" />
  <path
     d="m 180.1,149.7 v 2.9 c 0,0.1 0.1,0 0,0 h -2.8 c -0.1,0 0,0.1 0,0 v -5.8 c 0,-0.1 -0.1,0 0,0 h 2.8 c 0.1,0 0,-0.1 0,0 z"
     stroke="#0000ff"
     stroke-width="0.2"
     id="path1982"
     style="fill:none;stroke-linecap:round;stroke-linejoin:round" />
  <path
     d="m 180.1,137.7 v 2.9 c 0,0.1 0.1,0 0,0 h -2.8 c -0.1,0 0,0.1 0,0 v -5.8 c 0,-0.1 -0.1,0 0,0 h 2.8 c 0.1,0 0,-0.1 0,0 z"
     stroke="#0000ff"
     stroke-width="0.2"
     id="path1984"
     style="fill:none;stroke-linecap:round;stroke-linejoin:round" />
  <path
     d="m 185.7,131.7 c 0,-0.268 0.077,-0.531 0.222,-0.757 0.145,-0.226 0.352,-0.405 0.596,-0.516 0.245,-0.112 0.516,-0.151 0.781,-0.113 0.266,0.038 0.515,0.152 0.718,0.328 0.203,0.176 0.351,0.406 0.426,0.664 0.076,0.257 0.076,0.531 0,0.788 -0.075,0.258 -0.223,0.488 -0.426,0.664 -0.203,0.176 -0.452,0.29 -0.718,0.328 -0.265,0.038 -0.536,-0.001 -0.781,-0.113 -0.244,-0.111 -0.451,-0.29 -0.596,-0.516 -0.145,-0.226 -0.222,-0.489 -0.222,-0.757 z"
     stroke="#0000ff"
     stroke-width="0.2"
     id="path1986"
     style="fill:none;stroke-linecap:round;stroke-linejoin:round" />
  <path
     d="m 17.1,133.1 c -0.268,0 -0.531,-0.077 -0.757,-0.222 -0.226,-0.145 -0.405,-0.352 -0.516,-0.596 -0.112,-0.245 -0.151,-0.516 -0.113,-0.781 0.038,-0.266 0.152,-0.515 0.328,-0.718 0.176,-0.203 0.406,-0.351 0.664,-0.426 0.257,-0.076 0.531,-0.076 0.788,0 0.258,0.075 0.488,0.223 0.664,0.426 0.176,0.203 0.29,0.452 0.328,0.718 0.038,0.265 -0.001,0.536 -0.113,0.781 -0.111,0.244 -0.29,0.451 -0.516,0.596 -0.226,0.145 -0.489,0.222 -0.757,0.222 z"
     stroke="#0000ff"
     stroke-width="0.2"
     id="path1988"
     style="fill:none;stroke-linecap:round;stroke-linejoin:round" />
  <path
     d="m 24.1,137.7 v -2.9 c 0,-0.1 -0.1,0 0,0 h 2.8 c 0.1,0 0,-0.1 0,0 v 5.8 c 0,0.1 0.1,0 0,0 h -2.8 c -0.1,0 0,0.1 0,0 z"
     stroke="#0000ff"
     stroke-width="0.2"
     id="path1990"
     style="fill:none;stroke-linecap:round;stroke-linejoin:round" />
  <path
     d="m 24.1,149.7 v -2.9 c 0,-0.1 -0.1,0 0,0 h 2.8 c 0.1,0 0,-0.1 0,0 v 5.8 c 0,0.1 0.1,0 0,0 h -2.8 c -0.1,0 0,0.1 0,0 z"
     stroke="#0000ff"
     stroke-width="0.2"
     id="path1992"
     style="fill:none;stroke-linecap:round;stroke-linejoin:round" />
  <path
     d="m 24.1,161.7 v -2.9 c 0,-0.1 -0.1,0 0,0 h 2.8 c 0.1,0 0,-0.1 0,0 v 5.8 c 0,0.1 0.1,0 0,0 h -2.8 c -0.1,0 0,0.1 0,0 z"
     stroke="#0000ff"
     stroke-width="0.2"
     id="path1994"
     style="fill:none;stroke-linecap:round;stroke-linejoin:round" />
  <path
     d="m 24.1,173.7 v -2.9 c 0,-0.1 -0.1,0 0,0 h 2.8 c 0.1,0 0,-0.1 0,0 v 5.8 c 0,0.1 0.1,0 0,0 h -2.8 c -0.1,0 0,0.1 0,0 z"
     stroke="#0000ff"
     stroke-width="0.2"
     id="path1996"
     style="fill:none;stroke-linecap:round;stroke-linejoin:round" />
  <path
     d="m 24.1,185.7 v -2.9 c 0,-0.1 -0.1,0 0,0 h 2.8 c 0.1,0 0,-0.1 0,0 v 5.8 c 0,0.1 0.1,0 0,0 h -2.8 c -0.1,0 0,0.1 0,0 z"
     stroke="#0000ff"
     stroke-width="0.2"
     id="path1998"
     style="fill:none;stroke-linecap:round;stroke-linejoin:round" />
  <path
     d="m 24.1,197.7 v -2.9 c 0,-0.1 -0.1,0 0,0 h 2.8 c 0.1,0 0,-0.1 0,0 v 5.8 c 0,0.1 0.1,0 0,0 h -2.8 c -0.1,0 0,0.1 0,0 z"
     stroke="#0000ff"
     stroke-width="0.2"
     id="path2000"
     style="fill:none;stroke-linecap:round;stroke-linejoin:round" />
  <g
     id="p-5"
     style="fill:none;stroke-linecap:round;stroke-linejoin:round">
    <path
       d="M 19.833 114.667 C 19.833 114.935 19.756 115.198 19.611 115.424 C 19.466 115.649 19.259 115.829 19.015 115.940 C 18.771 116.052 18.500 116.091 18.234 116.052 C 17.968 116.014 17.719 115.900 17.517 115.725 C 17.314 115.549 17.166 115.319 17.090 115.061 C 17.014 114.804 17.014 114.530 17.090 114.272 C 17.166 114.015 17.314 113.784 17.517 113.609 C 17.719 113.433 17.968 113.319 18.234 113.281 C 18.500 113.243 18.771 113.282 19.015 113.393 C 19.259 113.505 19.466 113.684 19.611 113.910 C 19.756 114.136 19.833 114.398 19.833 114.667 Z"
       stroke="rgb(0,0,255)"
       stroke-width="0.20"
       id="path2003" />
    <path
       d="M 10.100 123.100 H 160.100 C 160.155 123.100 160.200 123.055 160.200 123.000 V 43.000 C 160.200 42.945 160.155 42.900 160.100 42.900 H 10.100 C 10.045 42.900 10.000 42.945 10.000 43.000 V 123.000 C 10.000 123.055 10.045 123.100 10.100 123.100 Z"
       stroke="rgb(0,0,0)"
       stroke-width="0.20"
       id="path2005" />
    <path
       d="M 151.767 113.267 C 152.035 113.267 152.298 113.344 152.524 113.489 C 152.749 113.634 152.929 113.841 153.040 114.085 C 153.152 114.329 153.191 114.600 153.152 114.866 C 153.114 115.132 153.000 115.381 152.825 115.583 C 152.649 115.786 152.419 115.934 152.161 116.010 C 151.904 116.086 151.630 116.086 151.372 116.010 C 151.115 115.934 150.884 115.786 150.709 115.583 C 150.533 115.381 150.419 115.132 150.381 114.866 C 150.343 114.600 150.382 114.329 150.493 114.085 C 150.605 113.841 150.784 113.634 151.010 113.489 C 151.236 113.344 151.498 113.267 151.767 113.267 Z"
       stroke="rgb(0,0,255)"
       stroke-width="0.20"
       id="path2007" />
    <path
       d="M 150.367 51.333 C 150.367 51.065 150.444 50.802 150.589 50.576 C 150.734 50.351 150.941 50.171 151.185 50.060 C 151.429 49.948 151.700 49.909 151.966 49.948 C 152.232 49.986 152.481 50.100 152.683 50.275 C 152.886 50.451 153.034 50.681 153.110 50.939 C 153.186 51.196 153.186 51.470 153.110 51.728 C 153.034 51.985 152.886 52.216 152.683 52.391 C 152.481 52.567 152.232 52.681 151.966 52.719 C 151.700 52.757 151.429 52.718 151.185 52.607 C 150.941 52.495 150.734 52.316 150.589 52.090 C 150.444 51.864 150.367 51.602 150.367 51.333 Z"
       stroke="rgb(0,0,255)"
       stroke-width="0.20"
       id="path2009" />
    <path
       d="M 18.433 52.733 C 18.165 52.733 17.902 52.656 17.676 52.511 C 17.451 52.366 17.271 52.159 17.160 51.915 C 17.048 51.671 17.009 51.400 17.048 51.134 C 17.086 50.868 17.200 50.619 17.375 50.417 C 17.551 50.214 17.781 50.066 18.039 49.990 C 18.296 49.914 18.570 49.914 18.828 49.990 C 19.085 50.066 19.316 50.214 19.491 50.417 C 19.667 50.619 19.781 50.868 19.819 51.134 C 19.857 51.400 19.818 51.671 19.707 51.915 C 19.595 52.159 19.416 52.366 19.190 52.511 C 18.964 52.656 18.702 52.733 18.433 52.733 Z"
       stroke="rgb(0,0,255)"
       stroke-width="0.20"
       id="path2011" />
  </g>
  <g
     id="p-6"
     style="fill:none;stroke-linecap:round;stroke-linejoin:round;">
    <path
       d="M 17.908 38.400 H 27.308 C 27.408 38.400 27.308 38.300 27.308 38.400 V 41.300 C 27.308 41.355 27.353 41.400 27.408 41.400 H 33.408 C 33.464 41.400 33.508 41.355 33.508 41.300 V 38.400 C 33.508 38.300 33.408 38.400 33.508 38.400 H 42.908 C 42.964 38.400 43.008 38.355 43.008 38.300 V 28.900 C 43.008 28.800 42.908 28.900 43.008 28.900 H 45.908 C 45.964 28.900 46.008 28.855 46.008 28.800 V 22.800 C 46.008 22.745 45.964 22.700 45.908 22.700 H 43.008 C 42.908 22.700 43.008 22.800 43.008 22.700 V 13.300 C 43.008 13.245 42.964 13.200 42.908 13.200 C 42.882 13.200 42.856 13.211 42.838 13.229 L 17.838 38.229 C 17.819 38.248 17.808 38.273 17.808 38.300 C 17.808 38.355 17.853 38.400 17.908 38.400 Z"
       stroke="rgb(0,0,0)"
       stroke-width="0.20"
       id="path2014" />
    <path
       d="M 34.575 29.067 C 34.748 29.067 34.916 29.116 35.062 29.210 C 35.207 29.303 35.322 29.436 35.394 29.593 C 35.465 29.750 35.490 29.924 35.466 30.095 C 35.441 30.266 35.368 30.426 35.255 30.556 C 35.142 30.686 34.994 30.782 34.829 30.830 C 34.663 30.879 34.487 30.879 34.321 30.830 C 34.156 30.782 34.008 30.686 33.895 30.556 C 33.782 30.426 33.709 30.266 33.684 30.095 C 33.660 29.924 33.685 29.750 33.756 29.593 C 33.828 29.436 33.943 29.303 34.088 29.210 C 34.234 29.116 34.402 29.067 34.575 29.067 Z"
       stroke="rgb(0,0,255)"
       stroke-width="0.20"
       id="path2016" />
    <path
       d="M 38.100 13.000 H 28.700 C 28.600 13.000 28.700 13.100 28.700 13.000 V 10.100 C 28.700 10.045 28.655 10.000 28.600 10.000 H 22.600 C 22.545 10.000 22.500 10.045 22.500 10.100 V 13.000 C 22.500 13.100 22.600 13.000 22.500 13.000 H 13.100 C 13.045 13.000 13.000 13.045 13.000 13.100 V 22.500 C 13.000 22.600 13.100 22.500 13.000 22.500 H 10.100 C 10.045 22.500 10.000 22.545 10.000 22.600 V 28.600 C 10.000 28.655 10.045 28.700 10.100 28.700 H 13.000 C 13.100 28.700 13.000 28.600 13.000 28.700 V 38.100 C 13.000 38.155 13.045 38.200 13.100 38.200 C 13.127 38.200 13.152 38.189 13.171 38.171 L 38.171 13.171 C 38.189 13.152 38.200 13.127 38.200 13.100 C 38.200 13.045 38.155 13.000 38.100 13.000 Z"
       stroke="rgb(0,0,0)"
       stroke-width="0.20"
       id="path2018" />
    <path
       d="M 21.433 22.333 C 21.261 22.333 21.092 22.284 20.947 22.190 C 20.802 22.097 20.686 21.964 20.615 21.807 C 20.543 21.650 20.518 21.476 20.542 21.305 C 20.567 21.134 20.640 20.974 20.753 20.844 C 20.866 20.714 21.014 20.618 21.180 20.570 C 21.345 20.521 21.521 20.521 21.687 20.570 C 21.852 20.618 22.001 20.714 22.114 20.844 C 22.226 20.974 22.300 21.134 22.324 21.305 C 22.349 21.476 22.324 21.650 22.252 21.807 C 22.180 21.964 22.065 22.097 21.920 22.190 C 21.775 22.284 21.606 22.333 21.433 22.333 Z"
       stroke="rgb(0,0,255)"
       stroke-width="0.20"
       id="path2020" />
    <path
       d="M 55.417 38.400 H 64.817 C 64.917 38.400 64.817 38.300 64.817 38.400 V 41.300 C 64.817 41.355 64.861 41.400 64.917 41.400 H 70.917 C 70.972 41.400 71.017 41.355 71.017 41.300 V 38.400 C 71.017 38.300 70.917 38.400 71.017 38.400 H 80.417 C 80.472 38.400 80.517 38.355 80.517 38.300 V 28.900 C 80.517 28.800 80.417 28.900 80.517 28.900 H 83.417 C 83.472 28.900 83.517 28.855 83.517 28.800 V 22.800 C 83.517 22.745 83.472 22.700 83.417 22.700 H 80.517 C 80.417 22.700 80.517 22.800 80.517 22.700 V 13.300 C 80.517 13.245 80.472 13.200 80.417 13.200 C 80.390 13.200 80.365 13.211 80.346 13.229 L 55.346 38.229 C 55.327 38.248 55.317 38.273 55.317 38.300 C 55.317 38.355 55.361 38.400 55.417 38.400 Z"
       stroke="rgb(0,0,0)"
       stroke-width="0.20"
       id="path2022" />
    <path
       d="M 72.083 29.067 C 72.256 29.067 72.425 29.116 72.570 29.210 C 72.715 29.303 72.830 29.436 72.902 29.593 C 72.974 29.750 72.999 29.924 72.974 30.095 C 72.950 30.266 72.876 30.426 72.763 30.556 C 72.651 30.686 72.502 30.782 72.337 30.830 C 72.171 30.879 71.995 30.879 71.830 30.830 C 71.664 30.782 71.516 30.686 71.403 30.556 C 71.290 30.426 71.217 30.266 71.192 30.095 C 71.168 29.924 71.193 29.750 71.265 29.593 C 71.336 29.436 71.452 29.303 71.597 29.210 C 71.742 29.116 71.911 29.067 72.083 29.067 Z"
       stroke="rgb(0,0,255)"
       stroke-width="0.20"
       id="path2024" />
    <path
       d="M 75.608 13.000 H 66.208 C 66.108 13.000 66.208 13.100 66.208 13.000 V 10.100 C 66.208 10.045 66.164 10.000 66.108 10.000 H 60.108 C 60.053 10.000 60.008 10.045 60.008 10.100 V 13.000 C 60.008 13.100 60.108 13.000 60.008 13.000 H 50.608 C 50.553 13.000 50.508 13.045 50.508 13.100 V 22.500 C 50.508 22.600 50.608 22.500 50.508 22.500 H 47.608 C 47.553 22.500 47.508 22.545 47.508 22.600 V 28.600 C 47.508 28.655 47.553 28.700 47.608 28.700 H 50.508 C 50.608 28.700 50.508 28.600 50.508 28.700 V 38.100 C 50.508 38.155 50.553 38.200 50.608 38.200 C 50.635 38.200 50.660 38.189 50.679 38.171 L 75.679 13.171 C 75.698 13.152 75.708 13.127 75.708 13.100 C 75.708 13.045 75.664 13.000 75.608 13.000 Z"
       stroke="rgb(0,0,0)"
       stroke-width="0.20"
       id="path2026" />
    <path
       d="M 58.942 22.333 C 58.769 22.333 58.600 22.284 58.455 22.190 C 58.310 22.097 58.195 21.964 58.123 21.807 C 58.051 21.650 58.026 21.476 58.051 21.305 C 58.075 21.134 58.148 20.974 58.261 20.844 C 58.374 20.714 58.523 20.618 58.688 20.570 C 58.854 20.521 59.030 20.521 59.195 20.570 C 59.361 20.618 59.509 20.714 59.622 20.844 C 59.735 20.974 59.808 21.134 59.832 21.305 C 59.857 21.476 59.832 21.650 59.760 21.807 C 59.689 21.964 59.573 22.097 59.428 22.190 C 59.283 22.284 59.114 22.333 58.942 22.333 Z"
       stroke="rgb(0,0,255)"
       stroke-width="0.20"
       id="path2028" />
  </g>
  <rect
     style="fill:#ff0000;fill-opacity:1;stroke:none;stroke-width:0.201011;stroke-dasharray:none;stroke-opacity:1"
     id="rect266"
     width="100.30344"
     height="40"
     x="34.714012"
     y="62.142151" />
  <rect
     style="fill:#ff0000;stroke:none;stroke-width:0.2;stroke-dasharray:none;stroke-opacity:1;fill-opacity:1"
     id="rect1052-3-6"
     width="19.279964"
     height="9.2799664"
     x="28.622843"
     y="323.36002" />
  <rect
     style="fill:#ff0000;fill-opacity:1;stroke:none;stroke-width:0.183034;stroke-dasharray:none;stroke-opacity:1"
     id="rect1052-3-6-3"
     width="12.487176"
     height="12"
     x="80.943962"
     y="332.78384" />
  <rect
     style="fill:#ff0000;stroke:none;stroke-width:0.2;stroke-dasharray:none;stroke-opacity:1;fill-opacity:1"
     id="rect1052-3-6-7"
     width="19.279964"
     height="9.2799664"
     x="128.65482"
     y="323.36002" />
  <path
     id="path18725-9"
     style="fill:#ff0000;fill-opacity:1;stroke:none;stroke-width:0.168565;stroke-dasharray:none;stroke-opacity:1"
     d="m 35.643734,52.142 a 1,1 0 0 0 -0.999939,0.999939 1,1 0 0 0 0.999939,0.999939 1,1 0 0 0 0.999939,-0.999939 A 1,1 0 0 0 35.643734,52.142 Z" />
  <path
     id="path18725-9-2"
     style="fill:#ff0000;fill-opacity:1;stroke:none;stroke-width:0.168565;stroke-dasharray:none;stroke-opacity:1"
     d="m 35.736637,110.144 a 1,1 0 0 0 -0.999939,0.99994 1,1 0 0 0 0.999939,0.99994 1,1 0 0 0 0.999939,-0.99994 1,1 0 0 0 -0.999939,-0.99994 z" />
  <path
     id="path18725-9-2-7"
     style="fill:#ff0000;fill-opacity:1;stroke:none;stroke-width:0.168565;stroke-dasharray:none;stroke-opacity:1"
     d="m 134.01595,110.138 a 1,1 0 0 0 -0.99994,0.99994 1,1 0 0 0 0.99994,0.99994 1,1 0 0 0 0.99994,-0.99994 1,1 0 0 0 -0.99994,-0.99994 z" />
  <path
     id="path18725-9-1"
     style="fill:#ff0000;fill-opacity:1;stroke:none;stroke-width:0.168565;stroke-dasharray:none;stroke-opacity:1"
     d="m 133.98857,52.142 a 1,1 0 0 0 -0.99994,0.999939 1,1 0 0 0 0.99994,0.999939 1,1 0 0 0 0.99994,-0.999939 1,1 0 0 0 -0.99994,-0.999939 z" />
  <g
     id="g30690">
    <rect
       style="fill:#ff0000;fill-opacity:1;stroke:none;stroke-width:0.175586;stroke-dasharray:none;stroke-opacity:1"
       id="rect1052"
       width="2.5"
       height="4.2558675"
       x="23"
       y="80.125748" />
    <path
       id="path18725"
       style="fill:#ff0000;fill-opacity:1;stroke:none;stroke-width:0.168565;stroke-dasharray:none;stroke-opacity:1"
       d="M 17.999939,79 A 1,1 0 0 0 17,79.999939 1,1 0 0 0 17.999939,80.999878 1,1 0 0 0 18.999878,79.999939 1,1 0 0 0 17.999939,79 Z" />
    <path
       id="path18725-5"
       style="fill:#ff0000;fill-opacity:1;stroke:none;stroke-width:0.168565;stroke-dasharray:none;stroke-opacity:1"
       d="M 30.999939,79 A 1,1 0 0 0 30,79.999939 1,1 0 0 0 30.999939,80.999878 1,1 0 0 0 31.999878,79.999939 1,1 0 0 0 30.999939,79 Z" />
  </g>
  <g
     id="g30650"
     transform="translate(-1.7835185,-0.69375834)">
    <rect
       style="fill:#ff0000;fill-opacity:1;stroke:none;stroke-width:0.175586;stroke-dasharray:none;stroke-opacity:1"
       id="rect1052-5"
       width="2.5"
       height="4.2558675"
       x="145.51511"
       y="80.22979" />
    <path
       id="path18725-6"
       style="fill:#ff0000;fill-opacity:1;stroke:none;stroke-width:0.168565;stroke-dasharray:none;stroke-opacity:1"
       d="m 140.51504,79.104058 a 1,1 0 0 0 -0.99994,0.99994 1,1 0 0 0 0.99994,0.99994 1,1 0 0 0 0.99994,-0.99994 1,1 0 0 0 -0.99994,-0.99994 z" />
    <path
       id="path18725-5-2"
       style="fill:#ff0000;fill-opacity:1;stroke:none;stroke-width:0.168565;stroke-dasharray:none;stroke-opacity:1"
       d="m 153.51504,79.104058 a 1,1 0 0 0 -0.99994,0.99994 1,1 0 0 0 0.99994,0.99994 1,1 0 0 0 0.99994,-0.99994 1,1 0 0 0 -0.99994,-0.99994 z" />
  </g>
  <text
     xml:space="preserve"
     style="font-size:17.8473px;fill:#ff0000;fill-opacity:1;stroke:none;stroke-width:0.1;stroke-dasharray:none;stroke-opacity:1"
     x="-130.02765"
     y="-240.07973"
     id="text26093"
     transform="scale(-1)"><tspan
       sodipodi:role="line"
       id="tspan26091"
       style="fill:#ff0000;fill-opacity:1;stroke:none;stroke-width:0.1;stroke-dasharray:none"
       x="-130.02765"
       y="-240.07973">Groupe 5</tspan></text>
  <path
     id="path18725-9-2-0"
     style="fill:#ff0000;fill-opacity:1;stroke:none;stroke-width:0.168565;stroke-dasharray:none;stroke-opacity:1"
     d="m 87.393944,135.25148 a 1,1 0 0 0 -0.999939,0.99994 1,1 0 0 0 0.999939,0.99994 1,1 0 0 0 0.999939,-0.99994 1,1 0 0 0 -0.999939,-0.99994 z" />
  <path
     id="path30816"
     style="fill:#ff0000;fill-opacity:1;stroke:none;stroke-width:0.168565;stroke-dasharray:none;stroke-opacity:1"
     d="m 111.39394,135.25148 a 1,1 0 0 0 -0.99994,0.99994 1,1 0 0 0 0.99994,0.99994 1,1 0 0 0 0.99994,-0.99994 1,1 0 0 0 -0.99994,-0.99994 z" />
  <path
     id="path30818"
     style="fill:#ff0000;fill-opacity:1;stroke:none;stroke-width:0.168565;stroke-dasharray:none;stroke-opacity:1"
     d="m 87.39377,180.25113 a 1,1 0 0 0 -0.999939,0.99994 1,1 0 0 0 0.999939,0.99994 1,1 0 0 0 0.999939,-0.99994 1,1 0 0 0 -0.999939,-0.99994 z" />
  <path
     id="path30820"
     style="fill:#ff0000;fill-opacity:1;stroke:none;stroke-width:0.168565;stroke-dasharray:none;stroke-opacity:1"
     d="m 111.39394,180.25113 a 1,1 0 0 0 -0.99994,0.99994 1,1 0 0 0 0.99994,0.99994 1,1 0 0 0 0.99994,-0.99994 1,1 0 0 0 -0.99994,-0.99994 z" />
</svg>
